<?xml version="1.0" encoding="UTF-8"?>
<svg xmlns="http://www.w3.org/2000/svg" viewBox="0 0 64 64" fill="currentColor">
  <path d="M10 36c0-8 6-14 16-15 8-1 14 1 18 5 4 4 7 10 7 16 0 4-2 7-5 8-3 1-6 0-8-2-2-2-3-4-3-7 0 0-2 2-6 2s-7-2-9-2c-2 0-4 1-6 3-2 2-4 2-4-2 0-2 0-4 0-6z"/>
  <circle cx="22" cy="32" r="1.6"/>
  <circle cx="34" cy="32" r="1.6"/>
  <path d="M26 38c1 1 2 2 4 2s3-1 4-2" stroke="currentColor" stroke-width="1.2" fill="none" stroke-linecap="round"/>
  <path d="M52 38l8-2-1 6-7-1z"/>
  <circle cx="46" cy="18" r="1.8" opacity="0.55"/>
  <circle cx="50" cy="14" r="1.2" opacity="0.4"/>
  <circle cx="44" cy="12" r="0.9" opacity="0.3"/>
</svg>
